<?xml version="1.0" standalone="no"?>
<!DOCTYPE svg PUBLIC "-//W3C//DTD SVG 1.1//EN" "http://www.w3.org/Graphics/SVG/1.1/DTD/svg11.dtd" >
<svg xmlns="http://www.w3.org/2000/svg">
<metadata>Generated by IcoMoon</metadata>
<defs>
<font id="icomoon" horiz-adv-x="1024">
<font-face units-per-em="1024" ascent="960" descent="-64" />
<missing-glyph horiz-adv-x="1024" />
<glyph unicode="&#x20;" horiz-adv-x="512" d="" />
<glyph unicode="&#xe5cd;" glyph-name="close" d="M810 664.667l-238-238 238-238-60-60-238 238-238-238-60 60 238 238-238 238 60 60 238-238 238 238z" />
<glyph unicode="&#xe5d4;" glyph-name="more_vert" d="M512 256.667c46 0 86-40 86-86s-40-86-86-86-86 40-86 86 40 86 86 86zM512 512.667c46 0 86-40 86-86s-40-86-86-86-86 40-86 86 40 86 86 86zM512 596.667c-46 0-86 40-86 86s40 86 86 86 86-40 86-86-40-86-86-86z" />
<glyph unicode="&#xe900;" glyph-name="antennaBlip0" d="M512 832c212.077 0 384-171.923 384-384s-171.923-384-384-384c-212.077 0-384 171.923-384 384s171.923 384 384 384zM512 960c-282.77 0-512-229.23-512-512s229.23-512 512-512c282.77 0 512 229.23 512 512s-229.23 512-512 512z" />
<glyph unicode="&#xe901;" glyph-name="antennaBlip1" d="M1024 448c0-282.77-229.23-512-512-512s-512 229.23-512 512c0 282.77 229.23 512 512 512s512-229.23 512-512z" />
<glyph unicode="&#xe902;" glyph-name="antennas_antenna" d="M516.655 552.727c-0.368 0.004-0.803 0.007-1.238 0.007-59.896 0-108.451-48.555-108.451-108.451 0-40.337 22.022-75.531 54.699-94.214l0.531-342.389c-0.051-0.858-0.080-1.862-0.080-2.873 0-28.534 23.131-51.665 51.665-51.665 1.011 0 2.014 0.029 3.010 0.086 29.063 2.076 52.238 25.251 54.31 54.264l0.011 342.297c33.208 18.963 55.23 54.157 55.23 94.494 0 59.896-48.555 108.451-108.451 108.451-0.435 0-0.87-0.003-1.304-0.008zM516.655 825.018c-2.91 0.088-6.333 0.138-9.767 0.138-102.031 0-193.756-44.126-257.133-114.335-5.437-5.231-8.649-12.167-8.649-19.854 0-14.91 12.087-26.996 26.996-26.996 7.686 0 14.622 3.212 19.539 8.367 55.897 60.506 135.632 98.26 224.184 98.26 1.698 0 3.393-0.014 5.084-0.042 0.908 0.019 2.281 0.028 3.656 0.028 88.547 0 168.276-37.749 223.975-98.031 5.356-3.811 11.769-5.966 18.686-5.966 1.19 0 2.364 0.064 3.521 0.188 0.942-0.114 2.204-0.171 3.48-0.171 7.762 0 15.025 2.135 21.234 5.849 4.808 4.726 7.911 11.49 7.911 18.979s-3.103 14.252-8.092 19.076c-68.322 70.669-163.965 114.539-269.854 114.539-1.678 0-3.353-0.011-5.025-0.033zM342.109 617.891c-4.61-4.834-7.447-11.395-7.447-18.618 0-14.91 12.087-26.996 26.996-26.996 7.223 0 13.784 2.837 18.629 7.457 33.882 32.528 79.992 52.565 130.782 52.565 53.567 0 101.929-22.288 136.318-58.097 5.23-3.669 11.643-5.825 18.56-5.825 1.19 0 2.364 0.064 3.521 0.188 5.442-0.013 10.562 5.573 21.733 10.693 4.997 4.831 8.1 11.595 8.1 19.084s-3.103 14.252-8.092 19.076c-44.307 45.657-106.235 73.987-174.779 73.987-68.316 0-130.060-28.141-174.271-73.464zM875.985 808.727c-93.427 93.5-222.534 151.337-365.149 151.337s-271.722-57.836-365.146-151.333c-5.589-10.709-10.709-27.465-0.003-38.171 4.831-4.997 11.595-8.1 19.084-8.1s14.252 3.103 19.076 8.092c83.895 82.282 198.93 133.061 325.825 133.061s241.93-50.779 325.893-133.127c5.094-3.533 11.508-5.688 18.424-5.688 1.19 0 2.364 0.064 3.521 0.188 10.562-0.013 16.147-0.013 16.147 5.573 5.727 4.896 9.334 12.129 9.334 20.203 0 6.938-2.663 13.255-7.024 17.982z" />
<glyph unicode="&#xe903;" glyph-name="antennas_cards" d="M896 960h-512c-1.188 0.084-2.574 0.131-3.971 0.131-33.225 0-60.16-26.935-60.16-60.16 0-1.397 0.048-2.783 0.141-4.157l-0.010-63.814h-192c-1.188 0.084-2.574 0.131-3.971 0.131-33.225 0-60.16-26.935-60.16-60.16 0-1.397 0.048-2.783 0.141-4.157l-0.010-767.814c-0.084-1.188-0.131-2.574-0.131-3.971 0-33.225 26.935-60.16 60.16-60.16 1.397 0 2.783 0.048 4.157 0.141l511.814-0.010c1.188-0.084 2.574-0.131 3.971-0.131 33.225 0 60.16 26.935 60.16 60.16 0 1.397-0.048 2.783-0.141 4.157l0.010 63.814h192c1.188-0.084 2.574-0.131 3.971-0.131 33.225 0 60.16 26.935 60.16 60.16 0 1.397-0.048 2.783-0.141 4.157l0.010 767.814c0.084 1.188 0.131 2.574 0.131 3.971 0 33.225-26.935 60.16-60.16 60.16-1.397 0-2.783-0.048-4.157-0.141zM640 0l-512-3.84c-0.084 0.577-0.132 1.243-0.132 1.92s0.048 1.343 0.14 1.995l-0.009 767.925h192v-640c-0.084-1.188-0.131-2.574-0.131-3.971 0-33.225 26.935-60.16 60.16-60.16 1.397 0 2.783 0.048 4.157 0.141l255.814-0.010z" />
<glyph unicode="&#xe904;" glyph-name="antennas_rename" d="M843.491 472.828l-306.663 306.663-536.828-536.828v-306.663h973.001v67.104h-599.235zM536.828 684.875l212.047-212.047-442.212-442.212-211.376 211.376zM239.56 3.104h-172.456v171.114l167.759-166.417zM979.041 797.609l-117.431 117.431c-22.569 27.985-56.855 45.736-95.287 45.736s-72.718-17.752-95.105-45.503l-98.153-99.547 306.663-306.663 99.313 99.313c27.5 22.568 44.907 56.559 44.907 94.616s-17.407 72.048-44.693 94.446z" />
<glyph unicode="&#xe905;" glyph-name="cardEdit_antenna" d="M526.222 531.627c-2.296 0.176-4.973 0.277-7.673 0.277-58.753 0-106.382-47.629-106.382-106.382 0-2.7 0.101-5.376 0.298-8.026-0.145-1.567-0.215-3.81-0.215-6.070 0-40.731 22.89-76.115 56.508-93.991l0.575-354.697h113.778v354.418c34.193 18.155 57.083 53.539 57.083 94.27 0 2.26-0.070 4.503-0.209 6.728 0.192 1.992 0.292 4.668 0.292 7.368 0 58.753-47.629 106.382-106.382 106.382-2.7 0-5.376-0.101-8.026-0.298zM244.622 700.018l40.391-40.391c62.329 60.641 147.544 98.037 241.493 98.037s179.164-37.395 241.572-98.113l40.312 40.468c-71.262 70.374-169.237 113.841-277.365 113.841-2.489 0-4.973-0.023-7.452-0.069-0.228 0.009-0.937 0.011-1.647 0.011-108.099 0-206.050-43.444-277.348-113.824zM341.333 597.618l40.391-40.391c36.609 35.932 86.826 58.111 142.222 58.111s105.613-22.179 142.254-58.142l40.36 40.422c-46.322 47.396-110.893 76.787-182.329 76.787s-136.007-29.39-182.282-76.738zM142.222 802.418l40.391-40.391c87.384 87.29 208.055 141.274 341.333 141.274s253.949-53.984 341.338-141.278l40.387 40.395c-97.696 97.683-232.654 158.101-381.724 158.101s-284.029-60.417-381.725-158.101z" />
<glyph unicode="&#xe906;" glyph-name="cardEdit_antennaCheckBox0" d="M768-64h-512c-7.293-0.81-15.748-1.272-24.312-1.272-128.66 0-232.96 104.3-232.96 232.96 0 8.564 0.462 17.019 1.363 25.344l-0.091 510.969c-0.81 7.293-1.272 15.748-1.272 24.312 0 128.66 104.3 232.96 232.96 232.96 8.564 0 17.019-0.462 25.344-1.363l510.969 0.091c7.293 0.81 15.748 1.272 24.312 1.272 128.66 0 232.96-104.3 232.96-232.96 0-8.564-0.462-17.019-1.363-25.344l0.091-510.969c0.81-7.293 1.272-15.748 1.272-24.312 0-128.66-104.3-232.96-232.96-232.96-8.564 0-17.019 0.462-25.344 1.363zM256 832c-92.16 0-128-35.84-128-128v-512c0-92.16 35.84-128 128-128h512c92.16 0 128 35.84 128 128v512c0 92.16-35.84 128-128 128z" />
<glyph unicode="&#xe907;" glyph-name="cardEdit_antennaCheckBox1" d="M991.004 822.329l-80.782 80.782-65.991-67.129c-34.030 17.238-74.192 27.335-116.712 27.335-1.369 0-2.735-0.010-4.098-0.031l-454.905 0.002c-6.482 0.72-13.999 1.131-21.611 1.131-114.365 0-207.076-92.711-207.076-207.076 0-7.612 0.411-15.128 1.211-22.528l-0.080-73.039-40.96-36.409 40.96-40.96v-303.787c-0.72-6.482-1.131-13.999-1.131-21.611 0-114.365 92.711-207.076 207.076-207.076 7.612 0 15.128 0.411 22.528 1.211l454.194-0.080c6.482-0.72 13.999-1.131 21.611-1.131 114.365 0 207.076 92.711 207.076 207.076 0 7.612-0.411 15.128-1.211 22.528l0.080 454.194c0.046 1.825 0.071 3.973 0.071 6.128 0 41.645-9.686 81.027-26.927 116.018zM268.516 748.373h455.111c4.428 0.365 9.585 0.573 14.791 0.573s10.363-0.208 15.463-0.616l-412.548-414.108-186.596 196.836v104.676c0 81.92 31.858 113.778 113.778 113.778zM837.404 634.596v-455.111c0-81.92-31.858-113.778-113.778-113.778h-455.111c-81.92 0-113.778 31.858-113.778 113.778v188.871l186.596-193.422 489.244 489.244c2.672-7.911 5.046-17.492 6.674-27.326z" />
<glyph unicode="&#xe908;" glyph-name="cardEdit_blockCollapse" d="M768 320h-512l256 320zM960 448c0 247.424-200.576 448-448 448s-448-200.576-448-448c0-247.424 200.576-448 448-448s448 200.576 448 448zM1024 448c0-282.77-229.23-512-512-512s-512 229.23-512 512c0 282.77 229.23 512 512 512s512-229.23 512-512z" />
<glyph unicode="&#xe909;" glyph-name="cardEdit_blockExpand" d="M256 576h512l-256-320zM64 448c0-247.424 200.576-448 448-448s448 200.576 448 448c0 247.424-200.576 448-448 448s-448-200.576-448-448zM0 448c0 282.77 229.23 512 512 512s512-229.23 512-512c0-282.77-229.23-512-512-512s-512 229.23-512 512z" />
<glyph unicode="&#xe90a;" glyph-name="cardEdit_groupCollapse" d="M80.782 156.729l-80.782 80.782 494.933 494.933 496.071-494.933-80.782-80.782-415.289 415.289-414.151-415.289z" />
<glyph unicode="&#xe90b;" glyph-name="cardEdit_groupExpand" d="M494.933 156.729l-494.933 494.933 80.782 80.782 414.151-415.289 415.289 415.289 80.782-80.782-496.071-494.933z" />
<glyph unicode="&#xe90c;" glyph-name="cardEdit_schedule" d="M727.579 906.105v53.895h-107.789v-53.895h-215.579v53.895h-107.789v-53.895h-269.474v-970.105h970.105v970.105zM889.263 43.789h-754.526v538.947h754.526zM889.263 690.526h-754.526v107.789h161.684v-53.895h107.789v53.895h215.579v-53.895h107.789v53.895h161.684zM242.526 205.474h107.789v-107.789h-107.789v107.789zM458.105 205.474h107.789v-107.789h-107.789v107.789zM673.684 205.474h107.789v-107.789h-107.789v107.789zM458.105 421.053h107.789v-107.789h-107.789v107.789zM242.526 421.053h107.789v-107.789h-107.789v107.789zM673.684 421.053h107.789v-107.789h-107.789v107.789z" />
<glyph unicode="&#xe90d;" glyph-name="cardEdit_selected0" d="M341.333 320c-70.692 0-128 57.308-128 128s57.308 128 128 128c70.692 0 128-57.308 128-128s-57.308-128-128-128zM341.333 618.667c-94.257 0-170.667-76.41-170.667-170.667s76.41-170.667 170.667-170.667c94.257 0 170.667 76.41 170.667 170.667s-76.41 170.667-170.667 170.667zM682.667 106.667h-341.333c-188.513 0-341.333 152.82-341.333 341.333s152.82 341.333 341.333 341.333h341.333c188.513 0 341.333-152.82 341.333-341.333s-152.82-341.333-341.333-341.333z" />
<glyph unicode="&#xe90e;" glyph-name="cardEdit_selected1" d="M682.667 618.667c-94.257 0-170.667-76.41-170.667-170.667s76.41-170.667 170.667-170.667c94.257 0 170.667 76.41 170.667 170.667s-76.41 170.667-170.667 170.667zM682.667 106.667h-341.333c-188.513 0-341.333 152.82-341.333 341.333s152.82 341.333 341.333 341.333h341.333c188.513 0 341.333-152.82 341.333-341.333s-152.82-341.333-341.333-341.333z" />
<glyph unicode="&#xe90f;" glyph-name="cardEdit_slider0" d="M128 448c0 70.692 57.308 128 128 128s128-57.308 128-128c0-70.692-57.308-128-128-128s-128 57.308-128 128zM64 448c0-106.039 85.961-192 192-192h512c106.039 0 192 85.961 192 192s-85.961 192-192 192h-512c-106.039 0-192-85.961-192-192zM256 192c-141.385 0-256 114.615-256 256s114.615 256 256 256h512c141.385 0 256-114.615 256-256s-114.615-256-256-256z" />
<glyph unicode="&#xe910;" glyph-name="cardEdit_slider1" d="M768 576c-70.692 0-128-57.308-128-128s57.308-128 128-128c70.692 0 128 57.308 128 128s-57.308 128-128 128zM768 192h-512c-141.385 0-256 114.615-256 256s114.615 256 256 256h512c141.385 0 256-114.615 256-256s-114.615-256-256-256z" />
<glyph unicode="&#xe911;" glyph-name="cardEdit_trash" d="M908.951 769.054c-0.998 60.473-49.758 109.232-110.136 110.229l-30.212 0.001-80.715 80.715h-351.774l-80.113-80.113h-25.299c-1.482 0.075-3.218 0.117-4.964 0.117-58.217 0-105.412-47.194-105.412-105.412 0-1.948 0.053-3.884 0.157-5.806l-0.012-109.963h39.153l8.433-139.144 34.334-583.68h619.219l37.346 722.824h49.995zM180.706 769.054c-0.098 1.128-0.153 2.441-0.153 3.767 0 25.616 20.766 46.381 46.381 46.381 1.326 0 2.639-0.056 3.937-0.165l49.826 0.011 80.715 80.715h301.176l80.113-80.113h55.416c27.091-1.257 48.738-22.904 49.991-49.879l0.004-50.714h-667.407zM226.485 548.593l-6.626 110.231h99.388l19.878-662.588h-80.113zM379.482 658.824h102.4v-662.588h-82.522zM542.118 658.824h96.979l-14.456-662.588h-82.522zM699.332 658.824h99.388l-34.334-662.588h-79.511z" />
<glyph unicode="&#xe912;" glyph-name="cardEdit_unselected0" d="M170.667 448c0 94.257 76.41 170.667 170.667 170.667s170.667-76.41 170.667-170.667c0-94.257-76.41-170.667-170.667-170.667s-170.667 76.41-170.667 170.667zM42.667 448c0-164.949 133.718-298.667 298.667-298.667h341.333c164.949 0 298.667 133.718 298.667 298.667s-133.718 298.667-298.667 298.667h-341.333c-164.949 0-298.667-133.718-298.667-298.667zM341.333 106.667c-188.513 0-341.333 152.82-341.333 341.333s152.82 341.333 341.333 341.333h341.333c188.513 0 341.333-152.82 341.333-341.333s-152.82-341.333-341.333-341.333z" />
<glyph unicode="&#xe913;" glyph-name="cardEdit_unselected1" d="M682.667 618.667c-94.257 0-170.667-76.41-170.667-170.667s76.41-170.667 170.667-170.667c94.257 0 170.667 76.41 170.667 170.667s-76.41 170.667-170.667 170.667zM682.667 106.667h-341.333c-188.513 0-341.333 152.82-341.333 341.333s152.82 341.333 341.333 341.333h341.333c188.513 0 341.333-152.82 341.333-341.333s-152.82-341.333-341.333-341.333z" />
<glyph unicode="&#xe914;" glyph-name="cardHover_duplicate" d="M832 960h-448c-35.346 0-64-28.654-64-64v-128h-128c-35.346 0-64-28.654-64-64v-704c0-35.346 28.654-64 64-64h448c35.346 0 64 28.654 64 64v128h128c35.346 0 64 28.654 64 64v704c0 35.346-28.654 64-64 64zM640 0h-448v704h128v-512c0-35.346 28.654-64 64-64h256zM832 192h-448v704h448zM576 384h64v128h128v64h-128v128h-64v-128h-128v-64h128v-128z" />
<glyph unicode="&#xe915;" glyph-name="cardHover_edit" d="M535.775 777.836l-535.775-535.775v-306.061h306.061l535.775 535.775zM66.972 2.972v172.118l172.118-172.118zM306.061 30.43l-210.292 210.292 440.005 442.684 211.631-211.631zM977.12 795.919l-117.201 116.531c-21.844 29.128-56.295 47.775-95.1 47.775s-73.256-18.646-94.88-47.468l-97.999-98.755 306.061-306.061 99.118 99.118c28.612 21.871 46.883 56.017 46.883 94.43s-18.272 72.559-46.598 94.221z" />
<glyph unicode="&#xe916;" glyph-name="cardHover_trash" d="M682.667 846.222v113.778h-341.333v-113.778h-227.556v-910.222h796.444v910.222zM398.222 903.111h227.556v-56.889h-227.556zM170.667-7.111v682.667h56.889v-682.667zM284.444-7.111v682.667h113.778v-682.667zM455.111-7.111v682.667h113.778v-682.667zM625.778-7.111v682.667h113.778v-682.667zM853.333-7.111h-56.889v682.667h56.889zM796.444 732.444h-625.778v56.889h682.667v-56.889z" />
<glyph unicode="&#xe917;" glyph-name="cards_antenna" d="M516.655 552.727c-0.368 0.004-0.803 0.007-1.238 0.007-59.896 0-108.451-48.555-108.451-108.451 0-40.337 22.022-75.531 54.699-94.214l0.531-342.389c-0.051-0.858-0.080-1.862-0.080-2.873 0-28.534 23.131-51.665 51.665-51.665 1.011 0 2.014 0.029 3.010 0.086 29.063 2.076 52.238 25.251 54.31 54.264l0.011 342.297c33.208 18.963 55.23 54.157 55.23 94.494 0 59.896-48.555 108.451-108.451 108.451-0.435 0-0.87-0.003-1.304-0.008zM516.655 825.018c-2.91 0.088-6.333 0.138-9.767 0.138-102.031 0-193.756-44.126-257.133-114.335-5.437-5.231-8.649-12.167-8.649-19.854 0-14.91 12.087-26.996 26.996-26.996 7.686 0 14.622 3.212 19.539 8.367 55.897 60.506 135.632 98.26 224.184 98.26 1.698 0 3.393-0.014 5.084-0.042 0.908 0.019 2.281 0.028 3.656 0.028 88.547 0 168.276-37.749 223.975-98.031 5.356-3.811 11.769-5.966 18.686-5.966 1.19 0 2.364 0.064 3.521 0.188 0.942-0.114 2.204-0.171 3.48-0.171 7.762 0 15.025 2.135 21.234 5.849 4.808 4.726 7.911 11.49 7.911 18.979s-3.103 14.252-8.092 19.076c-68.322 70.669-163.965 114.539-269.854 114.539-1.678 0-3.353-0.011-5.025-0.033zM342.109 617.891c-4.61-4.834-7.447-11.395-7.447-18.618 0-14.91 12.087-26.996 26.996-26.996 7.223 0 13.784 2.837 18.629 7.457 33.882 32.528 79.992 52.565 130.782 52.565 53.567 0 101.929-22.288 136.318-58.097 5.23-3.669 11.643-5.825 18.56-5.825 1.19 0 2.364 0.064 3.521 0.188 5.442-0.013 10.562 5.573 21.733 10.693 4.997 4.831 8.1 11.595 8.1 19.084s-3.103 14.252-8.092 19.076c-44.307 45.657-106.235 73.987-174.779 73.987-68.316 0-130.060-28.141-174.271-73.464zM875.985 808.727c-93.427 93.5-222.534 151.337-365.149 151.337s-271.722-57.836-365.146-151.333c-5.589-10.709-10.709-27.465-0.003-38.171 4.831-4.997 11.595-8.1 19.084-8.1s14.252 3.103 19.076 8.092c83.895 82.282 198.93 133.061 325.825 133.061s241.93-50.779 325.893-133.127c5.094-3.533 11.508-5.688 18.424-5.688 1.19 0 2.364 0.064 3.521 0.188 10.562-0.013 16.147-0.013 16.147 5.573 5.727 4.896 9.334 12.129 9.334 20.203 0 6.938-2.663 13.255-7.024 17.982z" />
<glyph unicode="&#xe918;" glyph-name="cards_createCard" d="M512 960c-282.77 0-512-229.23-512-512s229.23-512 512-512c282.77 0 512 229.23 512 512-0.319 282.642-229.358 511.681-511.969 512zM768 384h-192v-192h-128v192h-192v128h192v192h128v-192h192z" />
<glyph unicode="&#xe919;" glyph-name="cards_loved2" d="M946.56 817.92c-47.316 47.637-112.855 77.123-185.28 77.123s-137.964-29.486-185.266-77.108l-64.014-64.014-64 64c-47.407 48.216-113.335 78.095-186.24 78.095s-138.833-29.878-186.204-78.058c-47.775-48.618-77.245-115.285-77.245-188.836s29.471-140.219 77.248-188.839l436.442-440.281 434.56 440.32c47.89 48.513 77.468 115.202 77.468 188.8s-29.578 140.287-77.496 188.829z" />
<glyph unicode="&#xe91a;" glyph-name="cards_previewClose" d="M874.328 809.889c-90.14 92.666-216.029 150.157-355.346 150.157-2.378 0-4.752-0.017-7.122-0.050-1.652 0.033-4.026 0.050-6.404 0.050-139.316 0-265.205-57.491-355.236-150.043-92.776-90.254-150.267-216.143-150.267-355.459 0-2.378 0.017-4.752 0.050-7.122-0.033-1.652-0.050-4.026-0.050-6.404 0-139.316 57.491-265.205 150.043-355.236 90.254-92.776 216.143-150.267 355.459-150.267 2.378 0 4.752 0.017 7.122 0.050 1.652-0.033 4.026-0.050 6.404-0.050 139.316 0 265.205 57.491 355.236 150.043 92.776 90.254 150.267 216.143 150.267 355.459 0 2.378-0.017 4.752-0.050 7.122 0.033 1.652 0.050 4.026 0.050 6.404 0 139.316-57.491 265.205-150.043 355.236zM812.002 147.998c-73.821-76.668-177.343-124.289-291.988-124.289-2.741 0-5.475 0.027-8.202 0.081-1.985-0.057-4.806-0.086-7.633-0.086-114.706 0-218.289 47.62-292.060 124.169-76.789 74.014-124.406 177.595-124.406 292.297 0 2.676 0.026 5.346 0.078 8.010-0.057 1.994-0.086 4.815-0.086 7.643 0 114.706 47.62 218.289 124.169 292.060 74.015 76.794 177.599 124.414 292.305 124.414 2.828 0 5.648-0.029 8.462-0.087 1.899 0.055 4.633 0.082 7.374 0.082 114.645 0 218.167-47.621 291.866-124.161 76.796-74.018 124.416-177.602 124.416-292.307 0-2.828-0.029-5.648-0.087-8.462 0.052-1.844 0.078-4.514 0.078-7.19 0-114.702-47.617-218.282-124.161-292.052zM646.529 644.417l-134.309-134.309-134.748 134.309-61.888-61.888 134.309-134.748-134.309-134.309 61.888-61.888 134.748 134.309 134.309-134.309 62.327 61.888-134.748 134.309 134.748 134.748-62.327 61.888z" />
<glyph unicode="&#xe91b;" glyph-name="cards_selection0" d="M873.92 809.92c-90.11 92.645-215.961 150.125-355.238 150.125-2.349 0-4.695-0.016-7.036-0.049-1.632 0.033-3.978 0.049-6.327 0.049-139.277 0-265.129-57.48-355.128-150.011-92.756-90.224-150.236-216.076-150.236-355.353 0-2.349 0.016-4.695 0.049-7.036-0.033-1.632-0.049-3.978-0.049-6.327 0-139.277 57.48-265.129 150.011-355.128 90.224-92.756 216.076-150.236 355.353-150.236 2.349 0 4.695 0.016 7.036 0.049 1.632-0.033 3.978-0.049 6.327-0.049 139.277 0 265.129 57.48 355.128 150.011 92.756 90.224 150.236 216.076 150.236 355.353 0 2.349-0.016 4.695-0.049 7.036 0.033 1.632 0.049 3.978 0.049 6.327 0 139.277-57.48 265.129-150.011 355.128zM828.8 131.2c-77.962-80.982-187.299-131.283-308.384-131.283-2.959 0-5.911 0.030-8.856 0.090-2.064-0.060-5.016-0.090-7.975-0.090-121.085 0-230.422 50.301-308.255 131.147-81.111 78.098-131.413 187.435-131.413 308.52 0 2.959 0.030 5.911 0.090 8.856-0.060 2.064-0.090 5.016-0.090 7.975 0 121.085 50.301 230.422 131.147 308.255 78.098 81.111 187.435 131.413 308.52 131.413 2.959 0 5.911-0.030 8.856-0.090 2.064 0.060 5.016 0.090 7.975 0.090 121.085 0 230.422-50.301 308.255-131.147 81.112-78.148 131.41-187.527 131.41-308.654 0-2.912-0.029-5.817-0.087-8.716 0.058-2.031 0.087-4.936 0.087-7.848 0-121.127-50.298-230.506-131.147-308.39z" />
<glyph unicode="&#xe91c;" glyph-name="cards_selection1" d="M873.92 809.92c-90.11 92.645-215.961 150.125-355.238 150.125-2.349 0-4.695-0.016-7.036-0.049-1.632 0.033-3.978 0.049-6.327 0.049-139.277 0-265.129-57.48-355.128-150.011-92.756-90.224-150.236-216.076-150.236-355.353 0-2.349 0.016-4.695 0.049-7.036-0.033-1.632-0.049-3.978-0.049-6.327 0-139.277 57.48-265.129 150.011-355.128 90.224-92.756 216.076-150.236 355.353-150.236 2.349 0 4.695 0.016 7.036 0.049 1.632-0.033 3.978-0.049 6.327-0.049 139.277 0 265.129 57.48 355.128 150.011 92.756 90.224 150.236 216.076 150.236 355.353 0 2.349-0.016 4.695-0.049 7.036 0.033 1.632 0.049 3.978 0.049 6.327 0 139.277-57.48 265.129-150.011 355.128zM828.8 131.2c-77.962-80.982-187.299-131.283-308.384-131.283-2.959 0-5.911 0.030-8.856 0.090-2.064-0.060-5.016-0.090-7.975-0.090-121.085 0-230.422 50.301-308.255 131.147-81.111 78.098-131.413 187.435-131.413 308.52 0 2.959 0.030 5.911 0.090 8.856-0.060 2.064-0.090 5.016-0.090 7.975 0 121.085 50.301 230.422 131.147 308.255 78.098 81.111 187.435 131.413 308.52 131.413 2.959 0 5.911-0.030 8.856-0.090 2.064 0.060 5.016 0.090 7.975 0.090 121.085 0 230.422-50.301 308.255-131.147 81.112-78.148 131.41-187.527 131.41-308.654 0-2.912-0.029-5.817-0.087-8.716 0.058-2.031 0.087-4.936 0.087-7.848 0-121.127-50.298-230.506-131.147-308.39zM473.6 355.84l-114.88 114.88-45.44-45.44 160.32-160.32 317.12 320.64-45.44 44.8-271.68-274.56z" />
<glyph unicode="&#xe91d;" glyph-name="cards_viewed" d="M874.24 810.24c-90.083 92.46-215.811 149.814-354.936 149.814-2.568 0-5.132-0.020-7.691-0.058-1.786 0.039-4.349 0.058-6.918 0.058-139.124 0-264.853-57.354-354.832-149.707-92.564-90.19-149.918-215.918-149.918-355.043 0-2.568 0.020-5.132 0.058-7.691-0.039-1.786-0.058-4.349-0.058-6.918 0-139.124 57.354-264.853 149.707-354.832 90.19-92.564 215.918-149.918 355.043-149.918 2.568 0 5.132 0.020 7.691 0.058 1.786-0.039 4.349-0.058 6.918-0.058 139.124 0 264.853 57.354 354.832 149.707 92.564 90.19 149.918 215.918 149.918 355.043 0 2.568-0.020 5.132-0.058 7.691 0.039 1.786 0.058 4.349 0.058 6.918 0 139.124-57.354 264.853-149.707 354.832zM832 131.2c-78.018-81.025-187.425-131.352-308.587-131.352-4.013 0-8.013 0.055-12 0.165-1.957-0.067-4.956-0.098-7.962-0.098-121.044 0-230.339 50.304-308.119 131.148-81.114 78.15-131.412 187.529-131.412 308.656 0 2.912 0.029 5.817 0.087 8.716-0.058 2.031-0.087 4.936-0.087 7.848 0 121.127 50.298 230.506 131.147 308.39 78.045 81.109 187.34 131.413 308.384 131.413 3.006 0 6.005-0.031 8.996-0.093 2.952 0.104 6.953 0.159 10.966 0.159 121.162 0 230.569-50.327 308.458-131.217 79.248-77.878 128.279-186.018 128.279-305.61 0-3.982-0.054-7.952-0.162-11.908 0.108-2.79 0.162-6.76 0.162-10.742 0-119.592-49.031-227.732-128.088-305.414zM640 448c-70.44 0.333-127.413 57.513-127.413 127.999 0 51.454 30.36 95.817 74.143 116.152-21.682 7.48-47.529 11.601-74.338 11.601-141.385 0-256-114.615-256-256s114.615-256 256-256c141.385 0 256 114.615 256 256 0 26.809-4.121 52.656-11.764 76.941-20.183-46.359-64.532-76.695-115.966-76.695-0.233 0-0.465 0.001-0.698 0.002z" />
<glyph unicode="&#xe91e;" glyph-name="listView_checkbox0" d="M896 960h-768c-3.646 0.405-7.874 0.636-12.156 0.636-64.33 0-116.48-52.15-116.48-116.48 0-4.282 0.231-8.51 0.681-12.672l-0.045-767.484c-0.405-3.646-0.636-7.874-0.636-12.156 0-64.33 52.15-116.48 116.48-116.48 4.282 0 8.51 0.231 12.672 0.681l767.484-0.045c3.646-0.405 7.874-0.636 12.156-0.636 64.33 0 116.48 52.15 116.48 116.48 0 4.282-0.231 8.51-0.681 12.672l0.045 767.484c0.405 3.646 0.636 7.874 0.636 12.156 0 64.33-52.15 116.48-116.48 116.48-4.282 0-8.51-0.231-12.672-0.681zM960 64c0-46.080-17.92-64-64-64h-768c-46.080 0-64 17.92-64 64v768c0 46.080 17.92 64 64 64h768c46.080 0 64-17.92 64-64z" />
<glyph unicode="&#xe91f;" glyph-name="listView_checkbox1" d="M1035.947 805.831l-80.782 80.782-51.769-51.769c-14.135 40.38-51.912 68.822-96.333 68.822-3.74 0-7.433-0.202-11.069-0.595l-682.216 0.040c-3.241 0.36-6.999 0.565-10.805 0.565-57.182 0-103.538-46.355-103.538-103.538 0-3.806 0.205-7.564 0.606-11.264l-0.040-682.208c-0.36-3.241-0.565-6.999-0.565-10.805 0-57.182 46.355-103.538 103.538-103.538 3.806 0 7.564 0.205 11.264 0.606l682.208-0.040c3.241-0.36 6.999-0.565 10.805-0.565 57.182 0 103.538 46.355 103.538 103.538 0 3.806-0.205 7.564-0.606 11.264l0.040 573.55zM853.333 106.667c0-40.96-15.929-56.889-56.889-56.889h-682.667c-40.96 0-56.889 15.929-56.889 56.889v682.667c0 40.96 15.929 56.889 56.889 56.889h682.667c40.96 0 56.889-15.929 56.889-56.889v-5.12l-384-384-201.387 201.956-80.782-80.782 284.444-284.444 381.724 386.844z" />
<glyph unicode="&#xe920;" glyph-name="search" d="M80 560c0 176.731 143.269 320 320 320s320-143.269 320-320c0-176.731-143.269-320-320-320s-320 143.269-320 320zM1024 16l-304 312c49.178 63.579 79.13 144.209 79.998 231.801 0.002 221.113-179.085 400.199-399.998 400.199s-400-179.086-400-400c0-220.914 179.086-400 400-400 87.791 0.87 168.421 30.822 232.894 80.664l303.106-304.664z" />
<glyph unicode="&#xe921;" glyph-name="sideBar_antennas" d="M512 545.707c-61.028-0.005-110.498-49.478-110.498-110.507 0-40.597 21.892-76.082 54.515-95.292l0.517-348.442c-0.058-0.92-0.090-1.994-0.090-3.077 0-28.984 23.496-52.48 52.48-52.48 1.082 0 2.157 0.033 3.223 0.097 29.595 2.114 53.2 25.718 55.309 55.268l0.011 348.351c33.14 19.492 55.032 54.976 55.032 95.573 0 61.028-49.471 110.502-110.498 110.507zM512 822.613c-3.177 0.103-6.914 0.161-10.663 0.161-103.622 0-196.799-44.721-261.283-115.915-5.235-5.268-8.308-12.131-8.308-19.713 0-15.163 12.292-27.455 27.455-27.455 7.581 0 14.445 3.073 19.413 8.041 56.856 61.505 137.952 99.887 228.012 99.887 1.89 0 3.775-0.017 5.657-0.051 1.191 0.029 2.929 0.044 4.671 0.044 90.057 0 171.15-38.379 227.817-99.672 5.656-4.301 12.551-6.762 20.022-6.762 1.129 0 2.246 0.056 3.346 0.166 0.196-0.021 0.59-0.026 0.985-0.026 7.745 0 15.008 2.064 21.27 5.671 4.905 4.792 8.081 11.677 8.081 19.304s-3.177 14.512-8.279 19.404c-69.506 72.135-166.937 116.931-274.83 116.931-1.183 0-2.366-0.005-3.547-0.016zM334.080 612.267c-4.968-4.968-8.041-11.832-8.041-19.413 0-15.163 12.292-27.455 27.455-27.455 7.581 0 14.445 3.073 19.413 8.041 34.504 33.094 81.429 53.471 133.114 53.471 54.446 0 103.61-22.612 138.615-58.957 5.291-3.65 11.761-5.793 18.731-5.793 1.238 0 2.459 0.068 3.662 0.199 5.398-0.013 10.945 5.533 22.038 11.080 5.112 4.901 8.288 11.786 8.288 19.413s-3.177 14.512-8.279 19.404c-45.028 46.308-107.911 75.035-177.503 75.035s-132.475-28.726-177.438-74.968zM877.227 806.4c-95.050 95.060-226.365 153.857-371.413 153.857s-276.364-58.797-371.413-153.857c-5.547-11.094-11.094-27.734 0-38.827 4.901-5.112 11.786-8.288 19.413-8.288s14.512 3.177 19.404 8.279c85.295 84.755 202.828 137.135 332.596 137.135s247.301-52.38 332.611-137.15c5.208-3.565 11.678-5.708 18.649-5.708 1.238 0 2.459 0.068 3.662 0.199 10.945-0.013 16.491-0.013 16.491 5.533 5.112 4.901 8.288 11.786 8.288 19.413s-3.177 14.512-8.279 19.404z" />
<glyph unicode="&#xe922;" glyph-name="sideBar_cards" d="M772.189 960h-384.931c-59.861-1.047-107.985-49.819-107.985-109.831 0-0.006 0-0.011 0-0.017v-29.788h-93.091c-1.813 0.284-3.903 0.447-6.032 0.447-22.622 0-40.96-18.338-40.96-40.96 0-2.129 0.162-4.219 0.475-6.26l-0.029-784.994c-0.284-1.813-0.447-3.903-0.447-6.032 0-22.622 18.338-40.96 40.96-40.96 2.129 0 4.219 0.162 6.26 0.475l511.772-0.029c1.813-0.284 3.903-0.447 6.032-0.447 22.622 0 40.96 18.338 40.96 40.96 0 2.129-0.162 4.219-0.475 6.26l0.029 92.863h27.462c0.697-0.016 1.519-0.025 2.343-0.025 60.021 0 108.799 48.139 109.831 107.914l0.001 660.577c0 0.007 0 0.016 0 0.025 0 60.667-49.18 109.847-109.847 109.847-0.818 0-1.635-0.009-2.449-0.027zM827.113 189.673c0-30.333-24.59-54.924-54.924-54.924h-27.462v639.069c0.284 1.813 0.447 3.903 0.447 6.032 0 22.622-18.338 40.96-40.96 40.96-2.129 0-4.219-0.162-6.26-0.475l-365.619 0.029v29.789c0 30.333 24.59 54.924 54.924 54.924 0 0 0 0 0 0h384.931c30.333 0 54.924-24.59 54.924-54.924z" />
<glyph unicode="&#xe923;" glyph-name="sideBar_payments" d="M0 796.16v-696.32h1024v696.32zM983.040 140.8h-942.080v450.56h942.080zM983.040 632.32h-942.080v122.88h942.080zM471.040 314.88h204.8v-40.96h-204.8v40.96zM225.28 314.88h204.8v-40.96h-204.8v40.96zM716.8 314.88h204.8v-40.96h-204.8v40.96z" />
<glyph unicode="&#xe924;" glyph-name="sideBar_settings" d="M635.778 411.641l-88.612-36.557c-24.853 46.861-62.658 84.027-108.645 107.425l38.312 89.269-39.736 15.1-36.557-88.612c-22.9 7.735-49.274 12.199-76.691 12.199s-53.791-4.464-78.435-12.705l-33.224 89.117-36.557-15.1 36.557-88.612c-46.824-24.397-84.082-61.656-107.822-107.096l-89.27 35.571-15.1-36.955 88.612-36.557c-7.735-22.9-12.199-49.274-12.199-76.691s4.464-53.791 12.705-78.435l-89.117-34.813 15.1-36.557 88.612 36.557c24.397-46.824 61.656-84.082 107.096-107.822l-35.174-89.27 36.557-15.1 36.557 88.612c22.9-7.735 49.274-12.199 76.691-12.199s53.791 4.464 78.435 12.705l33.224-89.117 36.557 15.1-36.557 88.612c46.824 24.397 84.082 61.656 107.822 107.096l89.27-35.174 15.1 36.557-88.612 36.557c7.735 22.9 12.199 49.274 12.199 76.691s-4.464 53.791-12.705 78.435l89.117 34.813zM325.439 54.016c-115.654 0-209.409 93.756-209.409 209.409s93.756 209.409 209.409 209.409c115.654 0 209.409-93.756 209.409-209.409 0.004-0.472 0.006-1.031 0.006-1.59 0-115.735-93.711-209.584-209.394-209.806zM1024 661.979v39.736h-74.704c-1.738 21.878-6.689 42.126-14.396 60.953-8.083 18.269-18.744 35.171-31.54 50.199l53.089 51.766-28.213 28.213-54.041-52.054c-29.511 25.895-67.583 42.686-109.473 45.663l-0.596 73.546h-39.736v-74.704c-21.623-1.865-41.583-6.805-60.176-14.402-17.63-7.816-34.002-18.073-48.614-30.357l-52.539 51.911-28.213-28.213 53.246-52.452c-24.838-30.053-41.375-67.803-45.624-109.194l-74.777-0.875v-39.736h74.704c1.745-21.879 6.695-42.127 14.397-60.957 7.928-18.415 18.467-35.454 31.164-50.626l-53.111-51.336 28.213-28.213 52.452 52.054c30.063-24.818 67.807-41.35 109.188-45.623l0.881-73.586h39.736v74.704c41.944 2.802 79.603 19.169 109.111 44.702l52.615-53.047 28.213 28.213-52.849 52.849c25.405 30.158 42.368 68.192 46.811 109.965zM809.028 528.863c-18.739-7.979-40.537-12.617-63.419-12.617-91.513 0-165.7 74.186-165.7 165.7s74.186 165.7 165.7 165.7c68.76 0 127.738-41.882 152.815-101.527 8.529-19.906 13.253-41.811 13.253-64.821 0-68.558-41.938-127.321-101.559-152.034z" />
<glyph unicode="&#xe925;" glyph-name="sideBar_support" horiz-adv-x="1026" d="M743.263 421.997c4.845-0.314 10.505-0.493 16.207-0.493 147.167 0 266.47 119.303 266.47 266.47 0 44.189-10.756 85.865-29.793 122.554l-13.568 26.592-189.152-189.613-82.38 82.38 187.311 187.772-30.835 13.347c-31.584 14.255-68.474 22.56-107.304 22.56-147.167 0-266.47-119.303-266.47-266.47 0-19.232 2.037-37.988 5.908-56.064l-69.808-68.206-184.090 184.090 4.602 4.602 4.602 104.471-172.584 104.011-82.38-82.84 102.17-170.743 105.391 5.062 4.142 4.142 184.090-184.090-349.771-351.151c-25.914-26.254-41.919-62.343-41.919-102.17 0-80.341 65.129-145.47 145.47-145.47 40.514 0 77.159 16.562 103.535 43.284l263.264 263.264 266.010-264.169c25.635-23.328 59.86-37.613 97.421-37.613 80.065 0 144.971 64.906 144.971 144.971 0 37.79-14.46 72.203-38.148 98.008zM203.88 772.689l-16.108-16.108-59.829-2.761-69.954 114.136 34.057 34.057 114.136-69.954zM221.368 8.716c-15.995-11.581-36.009-18.525-57.644-18.525-54.648 0-98.948 44.301-98.948 98.948 0 21.635 6.944 41.648 18.724 57.933l468.77 471.441-3.222 12.886c-4.385 16.48-6.903 35.401-6.903 54.91 0 67.176 29.86 127.378 77.031 168.057 38.387 33.337 88.486 53.508 143.295 53.508 19.842 0 39.066-2.643 57.34-7.597l-175.496-170.39 147.272-147.272 174.885 175.346c7.251-20.91 11.438-45.010 11.438-70.087 0-121.75-98.698-220.448-220.448-220.448-20.271 0-39.904 2.736-58.548 7.859l-8.578 2.859zM949.444 8.716c-17.899-18.303-42.843-29.652-70.438-29.652-26.21 0-50.029 10.238-67.675 26.934l-262.282 263.666 138.067 138.067 263.249-263.249c15.875-17.422 25.597-40.692 25.597-66.233 0-26.018-10.089-49.681-26.569-67.287z" />
<glyph unicode="&#xe926;" glyph-name="sideBar_transactions" d="M490.951 903.111c6.64 0.335 14.418 0.527 22.24 0.527 164.791 0 309.769-84.827 393.652-213.198l-209.955-1.8v-56.889h298.667v298.098h-56.889v-184.32c-96.312 130.683-249.631 214.524-422.533 214.524-220.705 0-409.503-136.611-486.448-329.887l51.665-24.015c66.714 167.705 223.076 286.235 408.35 296.903zM950.613 263.68c-69.881-174.23-237.364-295.029-433.061-295.029-163.038 0-306.493 83.844-389.6 210.767l208.83 1.774v56.889h-298.667v-298.667h56.889v187.164c96.35-130.048 249.16-213.527 421.486-213.902h23.954c208.866 11.154 384.378 142.911 458.97 326.445z" />
<glyph unicode="&#xe927;" glyph-name="social_facebook" d="M664.178 658.489h-71.111c-25.6 0-29.867-9.956-29.867-36.978v-62.578h102.4l-11.378-110.933h-92.444v-331.378h-132.267v329.956h-68.267v112.356h68.267v88.178c0 82.489 44.089 126.578 142.222 126.578h91.022v-115.2zM512 960c-282.77 0-512-229.23-512-512s229.23-512 512-512c282.77 0 512 229.23 512 512s-229.23 512-512 512z" />
<glyph unicode="&#xe928;" glyph-name="social_gplus" d="M507.757 569.635c-7.072 57.989-45.26 106.077-90.519 107.492s-73.547-43.845-66.475-101.834 49.503-99.006 94.762-100.42 70.718 36.773 62.232 94.762zM825.989 620.552h-76.376v76.376h-38.188v-76.376h-76.376v-38.188h76.376v-74.961h38.188v76.376h76.376zM611.006 268.376c0 46.674-16.972 76.376-69.304 115.978s-66.475 60.818-15.558 100.42c27.978 19.794 46.449 51.426 48.080 87.446 0.131 2.134 0.201 4.341 0.201 6.564 0 36.208-18.461 68.105-46.485 86.79l43.464 0.239 36.773 38.188h-164.066c-103.249 0-152.751-62.232-152.751-130.122s48.088-124.464 140.022-124.464c-5.030-8.287-8.007-18.303-8.007-29.015 0-18.853 9.222-35.552 23.401-45.833-158.245-0.113-192.189-69.417-192.189-123.163 0-69.304 79.204-110.32 175.381-110.32 128.707 1.414 181.039 70.718 181.039 127.293zM1024 448c0-282.77-229.23-512-512-512s-512 229.23-512 512c0 282.77 229.23 512 512 512 0.042 0 0.092 0 0.141 0 282.692 0 511.859-229.167 511.859-511.859 0-0.050 0-0.099 0-0.149zM554.431 262.718c0-50.917-41.017-89.105-125.878-89.105-66.475 0-114.564 42.431-114.564 91.934s56.575 91.934 121.635 90.519c74.961 0 118.807-45.26 118.807-93.348z" />
<glyph unicode="&#xe929;" glyph-name="social_instagram" d="M807.822 622.933c0 62.838-50.94 113.778-113.778 113.778h-311.467v-143.644h-22.756v143.644h-15.644v-143.644h-22.756v140.8c-6.479-1.397-12.181-3.357-17.555-5.896l0.488-134.904h-22.756v122.311c-28.99-20.94-47.786-54.439-48.355-92.355l-0.001-75.467h182.044c26.798 27.23 64.051 44.103 105.244 44.103s78.447-16.872 105.225-44.083l183.486-0.019zM519.111 331.378c62.838 0 113.778 50.94 113.778 113.778-0.406 33.823-15.096 64.137-38.305 85.248-8.364 7.056-17.704 13.214-27.726 18.207-13.77 6.671-28.999 10.357-45.089 10.357-0.935 0-1.866-0.012-2.795-0.037-16.878-0.296-32.966-3.929-47.611-10.266-10.055-4.824-19.417-11.001-27.774-18.298-23.445-20.53-38.259-50.702-38.259-84.334 0-0.308 0.001-0.616 0.004-0.923 0-62.791 50.94-113.731 113.777-113.731zM807.822 530.489h-169.244c16.902-23.721 27.022-53.292 27.022-85.227 0-81.689-66.222-147.911-147.911-147.911s-147.911 66.222-147.911 147.911c0 31.935 10.121 61.506 27.329 85.681l-165.285-0.454v-258.844c0-62.838 50.94-113.778 113.778-113.778h348.444c62.838 0 113.778 50.94 113.778 113.778zM1024 448c0-282.77-229.23-512-512-512s-512 229.23-512 512c0 282.77 229.23 512 512 512s512-229.23 512-512zM519.111 361.244c46.343 0 83.911 37.568 83.911 83.911s-37.568 83.911-83.911 83.911c-46.343 0-83.911-37.568-83.911-83.911 0.785-46.024 37.887-83.126 83.837-83.91zM755.2 671.289v-62.578c-0.157-10.147-8.342-18.331-18.474-18.489h-61.17c-10.147 0.157-18.331 8.342-18.489 18.474v62.593c0.157 10.147 8.342 18.331 18.474 18.489h61.17c10.147-0.157 18.331-8.342 18.489-18.474z" />
<glyph unicode="&#xe92a;" glyph-name="social_linkedIn" d="M796.444 200.533h-112.356v190.578c0 52.622-19.911 81.067-61.156 81.067-45.511 0-68.267-29.867-68.267-81.067v-190.578h-108.089v362.667h108.089v-48.356c23.038 36.126 62.901 59.739 108.28 59.739 0.433 0 0.866-0.002 1.297-0.006 76.734 0.001 132.201-46.933 132.201-143.644zM318.578 611.556c-36.917 0-66.844 29.927-66.844 66.844s29.927 66.844 66.844 66.844c36.917 0 66.844-29.927 66.844-66.844 0-0.042 0-0.092 0-0.142 0-36.839-29.864-66.702-66.702-66.702-0.050 0-0.1 0-0.15 0zM375.467 200.533h-112.356v362.667h112.356zM512 960c-282.77 0-512-229.23-512-512s229.23-512 512-512c282.77 0 512 229.23 512 512s-229.23 512-512 512z" />
<glyph unicode="&#xe92b;" glyph-name="social_skype" d="M839.111 302.364c-0.013 34.115-10.033 65.887-27.285 92.543 3.12 14.833 4.672 32.681 4.672 50.892 0 0.273 0 0.547-0.001 0.82 0 0.127 0.001 0.328 0.001 0.528 0 166.049-134.609 300.658-300.658 300.658-0.35 0-0.7-0.001-1.050-0.002-0.769 0.010-1.742 0.016-2.716 0.016-18.573 0-36.661-2.078-54.043-6.015-24.063 15.879-54.996 25.319-88.089 25.908-0.376 0.003-0.626 0.004-0.876 0.004-96.849 0-175.36-78.511-175.36-175.36 0-0.051 0-0.101 0-0.152 0.225-33.915 9.657-65.588 25.919-92.697-3.176-15.097-4.729-33.441-4.729-52.148 0-0.275 0-0.551 0.001-0.826 0.162-166.305 135.010-301.103 301.361-301.184 1.185-0.020 2.573-0.032 3.965-0.032 18.755 0 37.024 2.084 54.586 6.033 24.21-15.927 55.361-25.333 88.676-25.769 97.044 1.12 175.23 79.754 175.625 176.743zM1024 448c0-282.77-229.23-512-512-512s-512 229.23-512 512c0 282.77 229.23 512 512 512s512-229.23 512-512zM690.204 373.049c0-82.062-64.996-134.4-162.702-134.4-86.329 0-170.667 38.258-170.667 106.098-0.005 0.23-0.008 0.5-0.008 0.771 0 19.989 15.62 36.329 35.32 37.482 51.017 0.005 49.595-74.946 130.235-74.946 56.889 0 74.951 31.147 74.951 52.338 0 76.373-243.2 28.444-243.2 173.938 0 79.218 64.996 132.978 166.827 128 97.564-5.689 154.169-48.071 159.858-87.751 0.246-1.693 0.387-3.649 0.387-5.637 0-22.779-18.466-41.244-41.244-41.244-1.539 0-3.058 0.084-4.554 0.249-43.62-0.016-47.887 58.010-124.26 58.010-33.991 0-62.293-14.222-62.293-45.227-1.849-64.284 241.351-26.311 241.351-167.68z" />
<glyph unicode="&#xe92c;" glyph-name="social_tumblr" d="M710.011 170.785c-20.31-10.51-43.897-19.262-68.626-25.046-22.911-4.874-46.843-7.447-71.368-7.484-2.26-0.091-4.881-0.143-7.513-0.143-23.69 0-46.399 4.199-67.424 11.894-19.805 6.477-38.145 16.596-54.122 29.52-13.19 10.46-23.805 24.253-30.539 40.093-5.733 17.429-8.893 36.717-8.893 56.742 0 2.663 0.056 5.314 0.167 7.95l-0.013 214.607h-66.475v87.691c23.918 7.825 44.621 19.396 62.553 34.202 16.543 14.077 30.322 31.471 40.265 51.134 10.944 23.614 18.437 49.924 21.54 77.563l86.383 1.166v-155.58h145.68v-96.177h-147.094v-156.994c-0.333-4.597-0.522-9.959-0.522-15.366 0-18.637 2.253-36.748 6.501-54.075 4.041-8.703 11.404-16.978 20.656-22.365 13.324-8.125 29.159-12.861 46.101-12.861 0.285 0 0.57 0.001 0.855 0.004 34.436 0.531 66.234 11.572 92.409 30.048zM512 960c-282.77 0-512-229.23-512-512s229.23-512 512-512c282.77 0 512 229.23 512 512 0 0.042 0 0.092 0 0.141 0 282.692-229.167 511.859-511.859 511.859-0.050 0-0.099 0-0.149 0z" />
<glyph unicode="&#xe92d;" glyph-name="social_twitter" d="M769.422 536.178c7.111-166.4-116.622-352.711-337.067-352.711-67.702 0.011-130.692 20.176-183.3 54.821 9.706-1.835 19.486-2.439 29.407-2.439 56.197 0 107.868 19.378 148.696 51.817-52.145 0.907-95.577 34.707-111.179 81.267 6.811-0.437 14.933-1.171 23.226-1.171 10.84 0 21.387 1.253 31.505 3.621-55.662 11.075-96.233 58.858-96.233 116.116 0 0.613 0.005 1.226 0.014 1.837 15.583-8.877 34.18-14.126 53.987-14.314-31.988 21.541-52.791 57.659-52.791 98.635 0 21.808 5.893 42.24 16.172 59.79 58.162-72.842 145.337-119.902 243.613-124.268-1.308 8.174-2.465 17.587-2.465 27.27 0 65.744 53.296 119.040 119.040 119.040 33.834 0 64.372-14.116 86.045-36.779 28.493 6.105 53.687 15.928 76.729 29.088-9.817-29.048-28.665-52.062-53.372-65.825 24.872 3.169 47.891 9.648 69.459 18.869-17.826-25.903-37.705-47.14-60.844-64.214zM512 960c-282.77 0-512-229.23-512-512s229.23-512 512-512c282.77 0 512 229.23 512 512s-229.23 512-512 512z" />
<glyph unicode="&#xe92e;" glyph-name="sortAscending" d="M512 704l-512-512h1024l-512 512z" />
<glyph unicode="&#xe92f;" glyph-name="sortDescending" d="M512 192l512 512h-1024l512-512z" />
<glyph unicode="&#xe930;" glyph-name="topBar_edit" d="M535.775 777.836l-535.775-535.775v-306.061h306.061l535.775 535.775zM66.972 2.972v172.118l172.118-172.118zM306.061 30.43l-210.292 210.292 440.005 442.684 211.631-211.631zM977.12 795.919l-117.201 116.531c-21.844 29.128-56.295 47.775-95.1 47.775s-73.256-18.646-94.88-47.468l-97.999-98.755 306.061-306.061 99.118 99.118c28.612 21.871 46.883 56.017 46.883 94.43s-18.272 72.559-46.598 94.221z" />
<glyph unicode="&#xe931;" glyph-name="topBar_gridView" d="M146.347 813.653v-292.693h292.693v292.693zM585.387 813.653v-292.693h292.693v292.693zM146.347 375.040v-292.693h292.693v292.693zM585.387 375.040v-292.693h292.693v292.693zM853.333-64h-682.667c-94.257 0-170.667 76.41-170.667 170.667v682.667c0 94.257 76.41 170.667 170.667 170.667h682.667c94.257 0 170.667-76.41 170.667-170.667v-682.667c0-94.257-76.41-170.667-170.667-170.667z" />
<glyph unicode="&#xe932;" glyph-name="topBar_listView" d="M146.347 813.653v-146.347h146.347v146.347zM439.040 813.653v-146.347h438.613v146.347zM146.347 520.96v-146.347h146.347v146.347zM439.040 520.96v-146.347h438.613v146.347zM146.347 228.693v-146.347h146.347v146.347zM439.040 228.693v-146.347h438.613v146.347zM853.333-64h-682.667c-94.257 0-170.667 76.41-170.667 170.667v682.667c0 94.257 76.41 170.667 170.667 170.667h682.667c94.257 0 170.667-76.41 170.667-170.667v-682.667c0-94.257-76.41-170.667-170.667-170.667z" />
<glyph unicode="&#xe933;" glyph-name="topBar_sort" horiz-adv-x="1023" d="M510.537 960l-146.286-146.286h292.571l-146.286 146.286zM985.966 265.143h-288.183l315.977 378.88c5.271 6.293 8.472 14.476 8.472 23.407 0 20.091-16.2 36.397-36.25 36.57h-365.731c-20.198 0-36.571-16.374-36.571-36.571s16.374-36.571 36.571-36.571h288.183l-315.977-378.88c-5.271-6.293-8.472-14.476-8.472-23.407 0-20.091 16.2-36.397 36.25-36.57h365.731c20.198 0 36.571 16.374 36.571 36.571s-16.374 36.571-36.571 36.571zM438.857 212.48c6.089-12.228 18.502-20.481 32.842-20.481 0.111 0 0.222 0 0.333 0.001h-0.017c20.124 0.097 36.401 16.433 36.401 36.571 0 5.858-1.378 11.395-3.826 16.304l-219.333 438.645c-6.803 10.964-18.775 18.157-32.427 18.157s-25.624-7.193-32.333-17.995l-141.503-286.882c-2.573-3.469-4.583-7.536-5.791-11.934l-70.277-140.203c-1.379-3.697-2.176-7.97-2.176-12.428 0-20.198 16.374-36.571 36.571-36.571 12.656 0 23.81 6.428 30.375 16.198l62.986 126.424h247.223zM167.741 411.429l86.796 174.080 86.796-174.080zM510.537-64l146.286 146.286h-292.571l146.286-146.286z" />
<glyph unicode="&#xe934;" glyph-name="check" d="M896 725.334q18.333 0 30.5-12.167t12.167-30.5q0-18-12.333-30.333l-512-512q-12.333-12.333-30.333-12.333t-30.333 12.333l-256 256q-12.333 12.333-12.333 30.333 0 18.333 12.167 30.5t30.5 12.167q18 0 30.333-12.333l225.667-226 481.667 482q12.333 12.333 30.333 12.333z" />
<glyph unicode="&#xe935;" glyph-name="add" d="M810 384.667h-256v-256h-84v256h-256v84h256v256h84v-256h256v-84z" />
<glyph unicode="&#xe936;" glyph-name="chain-broken, unlink" horiz-adv-x="951" d="M726.357 214.214l146.286-146.286q5.143-5.714 5.143-13.143 0-6.858-5.143-13.143-5.714-5.143-13.143-5.143t-13.143 5.143l-146.286 146.286q-5.143 5.714-5.143 13.143t5.143 13.143q5.714 5.143 13.143 5.143t13.143-5.143zM749.785 310.786h182.857q8 0 13.143-5.143t5.143-13.143-5.143-13.143-13.143-5.143h-182.857q-8 0-13.143 5.143t-5.143 13.143 5.143 13.143 13.143 5.143zM621.785 182.786q8 0 13.143-5.143t5.143-13.143v-182.857q0-8-5.143-13.143t-13.143-5.143-13.143 5.143-5.143 13.143v182.857q0 8 5.143 13.143t13.143 5.143zM694.928 905.071q68.571 0 116-48.571l83.429-84q47.429-47.429 47.429-116 0-69.143-48.571-116.571l-191.429-190.857q-12-12-32-24l-10.286 136.572 156.571 156q15.429 15.429 15.714 38.857t-15.143 38.857l-83.429 84q-16 16-38.286 16-22.857 0-38.857-16l-157.143-156.571-136.572 10.286q12 20.001 24 32l192 192q49.143 48 116.571 48zM281.214 552.5l10.286-136.572-156.571-156q-16-16-16-38.857 0-22.286 15.429-38.857l83.429-84q16-16 38.286-16 22.857 0 38.857 16l156.571 156.571 137.144-10.286q-12-20.001-24-32l-192-192q-49.143-48-116.571-48-68.571 0-116 48.571l-83.429 84q-47.429 47.429-47.429 116 0 69.143 48.571 116.571l191.429 190.857q12 12 32 24zM329.214 914.214q8 0 13.143-5.143t5.143-13.143v-182.857q0-8-5.143-13.143t-13.143-5.143-13.143 5.143-5.143 13.143v182.857q0 8 5.143 13.143t13.143 5.143zM18.357 603.357h182.857q8 0 13.143-5.143t5.143-13.143-5.143-13.143-13.143-5.143h-182.857q-8 0-13.143 5.143t-5.143 13.143 5.143 13.143 13.143 5.143zM104.642 835.928l146.286-146.286q5.143-6.286 5.143-13.143t-5.143-13.143q-5.714-5.143-13.143-5.143t-13.143 5.143l-146.286 146.286q-5.143 5.714-5.143 13.143t5.143 13.143q5.714 5.143 13.143 5.143t13.143-5.143z" />
<glyph unicode="&#xe937;" glyph-name="cardHover_preview" horiz-adv-x="1545" d="M772.389 960c-328.411 0-566.126-146.286-772.389-512 206.263-365.714 443.977-512 772.389-512s566.126 146.286 772.389 512c-206.263 365.714-447.634 512-772.389 512zM772.389 9.143c-296.229 0-503.954 131.657-687.543 438.857 183.589 307.2 391.314 438.857 687.543 438.857s503.954-131.657 690.469-438.857c-186.514-307.2-394.24-438.857-690.469-438.857zM772.389 813.714c-201.978 0-365.714-163.736-365.714-365.714s163.736-365.714 365.714-365.714c201.978 0 365.714 163.736 365.714 365.714s-163.736 365.714-365.714 365.714zM772.389 155.429c-161.583 0-292.571 130.989-292.571 292.571s130.989 292.571 292.571 292.571c161.583 0 292.571-130.989 292.571-292.571s-130.989-292.571-292.571-292.571zM991.817 448c0-121.187-98.242-219.429-219.429-219.429s-219.429 98.242-219.429 219.429c0 121.187 98.242 219.429 219.429 219.429s219.429-98.242 219.429-219.429z" />
<glyph unicode="&#xe938;" glyph-name="icon_antenna" horiz-adv-x="751" d="M425.623 687.1c0-27.655-22.419-50.073-50.073-50.073s-50.073 22.419-50.073 50.073c0 27.655 22.419 50.073 50.073 50.073s50.073-22.419 50.073-50.073zM650.954-41.467c0.082 0.751 0.128 1.622 0.128 2.504s-0.047 1.753-0.137 2.611c0.106 0.72 0.161 1.677 0.161 2.647s-0.055 1.928-0.163 2.869c0.052 0.409 0.076 1.021 0.076 1.637s-0.024 1.228-0.070 1.833l-250.362 574.261c-4.456 8.327-13.095 13.896-23.034 13.896s-18.578-5.569-22.966-13.757l-254.441-575.983c-0.042-0.525-0.065-1.136-0.065-1.753s0.024-1.228 0.070-1.833c-0.102-0.746-0.157-1.704-0.157-2.674s0.055-1.928 0.163-2.869c-0.086-1.305-0.13-2.969-0.13-4.642s0.043-3.336 0.129-4.988c0.819-1.872 1.83-3.688 3.043-5.346l-0.048-2.935c2.232-2.286 4.892-4.144 7.851-5.445l0.161-0.063h14.021c6.38 0.084 12.171 2.541 16.544 6.527l233.823 204.782 233.843-207.804c3.438-2.078 7.564-3.362 11.978-3.504l0.040-0.001c1.505-0.315 3.235-0.496 5.007-0.496s3.502 0.18 5.172 0.524l-0.165-0.028c3.12 1.364 5.779 3.222 8.007 5.503l0.005 0.005v3.004c1.165 1.589 2.176 3.405 2.946 5.342 3.409 1.589 6.248 3.625 8.553 6.155zM375.55 474.289l80.618-185.271-80.618-72.106-80.618 71.605zM193.283 55.175l80.618 185.271 64.094-56.583zM477.199 240.446l80.618-185.271-144.712 128.188zM127.687 414.2c0.81-0.093 1.749-0.146 2.7-0.146 13.827 0 25.037 11.209 25.037 25.037 0 8.249-3.989 15.566-10.144 20.128-58.336 58.84-94.341 139.782-94.341 229.133s36.005 170.294 94.297 229.109c3.102 4.108 4.984 9.334 4.984 14.998 0 13.827-11.209 25.037-25.037 25.037-5.665 0-10.89-1.881-15.085-5.053-67.949-67.924-110.018-161.846-110.018-265.593s42.069-197.669 110.079-265.637c4.498-4.34 10.626-7.013 17.377-7.013 0.053 0 0.106 0 0.159 0zM180.765 492.315c4.549-4.549 10.834-7.363 17.776-7.363 13.884 0 25.139 11.255 25.139 25.139 0 6.942-2.814 13.227-7.363 17.776-40.718 40.767-65.899 97.059-65.899 159.233s25.181 118.467 65.901 159.236c4.547 4.547 7.361 10.832 7.361 17.774 0 13.884-11.255 25.139-25.139 25.139-6.942 0-13.227-2.814-17.776-7.363-49.866-49.843-80.71-118.712-80.71-194.785s30.844-144.943 80.709-194.784zM701.027 687.1c-0.368-89.051-36.663-169.555-95.13-227.825-4.559-4.559-7.372-10.843-7.372-17.785 0-13.884 11.255-25.139 25.139-25.139 6.942 0 13.227 2.814 17.776 7.363 67.118 67.817 108.584 161.133 108.584 264.135 0 103.252-41.668 196.771-109.105 264.66-4.529 4.529-10.814 7.342-17.756 7.342-13.884 0-25.139-11.255-25.139-25.139 0-6.942 2.814-13.227 7.363-17.776 59.072-58.625 95.64-139.854 95.64-229.624 0-0.075 0-0.15 0-0.224zM600.88 687.1c0-0.126 0-0.276 0-0.425 0-62.076-25.27-118.25-66.085-158.796-4.561-4.561-7.375-10.846-7.375-17.788 0-13.884 11.255-25.139 25.139-25.139 6.942 0 13.227 2.814 17.776 7.363 49.866 49.843 80.71 118.712 80.71 194.785s-30.844 144.943-80.709 194.784c-4.55 4.55-10.835 7.364-17.777 7.364-13.884 0-25.139-11.255-25.139-25.139 0-6.942 2.814-13.227 7.363-17.776 40.827-40.558 66.097-96.732 66.097-158.808 0-0.15 0-0.299 0-0.449zM464.18 563.419c4.538-4.574 10.826-7.406 17.776-7.406s13.238 2.832 17.774 7.404c31.575 31.693 51.096 75.411 51.096 123.689 0 47.777-19.117 91.088-50.12 122.702-4.522 4.521-10.807 7.335-17.748 7.335-13.884 0-25.139-11.255-25.139-25.139 0-6.942 2.814-13.227 7.363-17.776 22.721-22.665 36.777-54.006 36.777-88.63s-14.057-65.965-36.775-88.627c-4.314-4.493-6.969-10.602-6.969-17.331 0-6.204 2.256-11.881 5.994-16.255zM250.367 563.419c4.549-4.549 10.834-7.363 17.776-7.363 13.884 0 25.139 11.255 25.139 25.139 0 6.942-2.814 13.227-7.363 17.776-22.721 22.665-36.777 54.006-36.777 88.63s14.057 65.965 36.775 88.627c2.224 3.667 3.538 8.095 3.538 12.829 0 13.827-11.209 25.037-25.037 25.037-5.245 0-10.113-1.613-14.136-4.37-31.188-31.584-50.506-75.099-50.506-123.125s19.318-91.541 50.608-123.197z" />
<glyph unicode="&#xe939;" glyph-name="icon_trash" horiz-adv-x="683" d="M35.84-64h611.556v796.444h-611.556zM92.729 675.556h497.778v-682.667h-497.778zM483.556 846.222v85.333c0 15.709-12.735 28.444-28.444 28.444h-227.556c-15.709 0-28.444-12.735-28.444-28.444v-85.333h-199.111v-56.889h682.667v56.889zM256 846.222v56.889h170.667v-56.889zM312.889 618.667h56.889v-568.889h-56.889v568.889zM455.111 618.667h56.889v-568.889h-56.889v568.889zM170.667 618.667h56.889v-568.889h-56.889v568.889z" />
<glyph unicode="&#xe93a;" glyph-name="cards_loved" horiz-adv-x="832" d="M784 739.2c-7.755 25.969-22.752 47.799-42.633 63.808-8.002 26.162-22.998 47.992-42.88 64-15.982 53.946-64.668 92.607-122.442 92.992h-448.044c-70.692 0-128-57.308-128-128v-576c0.233-40.040 18.814-75.693 47.754-99.008 8.002-26.161 22.998-47.991 42.879-64 8.002-26.162 22.998-47.992 42.88-64 15.982-53.946 64.668-92.607 122.442-92.992h448.044c70.692 0 128 57.308 128 128v576c-0.233 40.040-18.814 75.693-47.754 99.008zM32 256v576c0 53.019 42.981 96 96 96h448c53.019 0 96-42.981 96-96v-576c0-53.019-42.981-96-96-96h-448c-53.019 0-96 42.981-96 96zM96 132.48c9.559-2.706 20.558-4.332 31.914-4.479l448.086-0.001c70.692 0 128 57.308 128 128v554.88c6.671-12.431 10.673-27.166 10.879-42.816l0.001-576.064c0-53.019-42.981-96-96-96h-448c-30.304 0.043-57.289 14.215-74.727 36.28zM138.88 68.48c9.559-2.706 20.558-4.332 31.914-4.479l448.086-0.001c70.692 0 128 57.308 128 128v554.88c6.671-12.431 10.673-27.166 10.879-42.816l0.001-576.064c0-53.019-42.981-96-96-96h-448c-0.151-0.001-0.329-0.001-0.508-0.001-30.354 0-57.395 14.182-74.859 36.281zM800 64c0-53.019-42.981-96-96-96h-448c-30.304 0.043-57.289 14.215-74.727 36.28 9.406-2.506 20.405-4.132 31.762-4.279l448.086-0.001c70.692 0 128 57.308 128 128v554.88c6.671-12.431 10.673-27.166 10.879-42.816zM252.16 613.12c16.748-2.839 31.388-10.364 42.926-21.163 55.634-55.637-21.166-136.277-55.726-179.157s-76.8-81.28-85.12-128l-12.8-8.32v-12.8l8.32-17.28 12.8-4.48 12.8 12.8c46.72-21.12 161.92-21.12 273.28 123.52 0.318-4.461 3.859-8.002 8.291-8.318 17.309-4.482 51.229 17.278 59.549 72.318 0 8.32 4.48 17.28 4.48 25.6 4.859 2.335 10.565 3.7 16.589 3.7 14.96 0 27.954-8.414 34.509-20.768 25.702-46.932 0.102-98.132 8.422-119.892 0-8.32 68.48 119.68 0 170.88-13.127 11.609-30.487 18.697-49.502 18.697-5.13 0-10.139-0.516-14.979-1.498 98.401 201.042 34.401 303.442-3.999 324.562s-72.32-119.040-157.44-272.64v5.12c-6.116 18.756-16.485 34.7-30.013 47.298-30.979 26.297-71.191 42.424-115.156 42.94-49.568-3.258-91.831-31.253-114.942-71.621 16.912-0.698 33.552 16.582 50.832 20.422 14.485 2.498 31.166 3.926 48.182 3.926 20.774 0 41.052-2.129 60.625-6.18z" />
<glyph unicode="&#xe93b;" glyph-name="snapchat-ghost" horiz-adv-x="951" d="M484.571 877.714q76.571 0.571 137.429-39.143t93.429-110q15.429-33.143 15.429-102.286 0-26.857-5.143-109.143 8-4 16-4 10.286 0 29.143 7.714t29.143 7.714q16.571 0 32-10.286t15.429-26.286q0-18.286-18-30.857t-39.429-18-39.429-16.571-18-27.143q0-8.571 6.857-24.571 21.143-46.857 58.571-85.714t82.571-57.714q16-6.857 45.714-13.143 16-3.429 16-20 0-40-125.143-58.857-4-6.286-6.286-22.286t-8-26.571-18.857-10.571q-11.429 0-35.429 3.714t-36.571 3.714q-21.143 0-35.429-2.857-18.286-2.857-36-12.857t-33.143-21.714-33.143-23.143-43.429-19.143-56.571-7.714q-29.714 0-55.143 7.714t-42.857 19.143-32.857 23.143-33.143 21.714-35.429 12.857q-14.857 2.857-36 2.857-13.714 0-37.429-4.286t-33.429-4.286q-14.286 0-20 10.571t-8 27.143-6.286 22.857q-125.143 18.857-125.143 58.857 0 16.571 16 20 29.714 6.286 45.714 13.143 44.571 18.286 82.571 57.714t58.571 85.714q6.857 16 6.857 24.571 0 16-18 27.143t-39.714 16.857-39.714 18-18 30q0 15.429 14.857 26t31.429 10.571q8.571 0 27.429-7.429t30.286-7.429q10.286 0 18.286 4-5.143 81.143-5.143 108.571 0 69.714 15.429 102.857 36.571 78.286 98.286 113.143t150.857 36z" />
<glyph unicode="&#xe93c;" glyph-name="envelope, email, mail, letter, contact" d="M512.48 356.448l-130.304 106.976-283.584-334.816h828.032l-283.616 338.144-130.528-110.304zM957.632 767.392h-890.080l445.056-374.336 445.024 374.336zM662.56 483.616l297.312-354.688v606.464l-297.312-251.776zM64.128 735.392v-606.464l297.312 354.688-297.312 251.776z" />
<glyph unicode="&#xe93d;" glyph-name="icon_group" horiz-adv-x="1489" d="M512 831.535c0.276 0.001 0.603 0.001 0.93 0.001 212.334 0 384.465-172.131 384.465-384.465s-172.131-384.465-384.465-384.465c-212.334 0-384.465 172.131-384.465 384.465 0 0.327 0 0.653 0.001 0.98 0.528 211.558 171.927 382.956 383.484 383.484zM512 960c-282.77 0-512-229.23-512-512s229.23-512 512-512c282.77 0 512 229.23 512 512s-229.23 512-512 512zM977.455 831.535c0.276 0.001 0.603 0.001 0.93 0.001 212.334 0 384.465-172.131 384.465-384.465s-172.131-384.465-384.465-384.465c-212.334 0-384.465 172.131-384.465 384.465 0 0.327 0 0.653 0.001 0.98 0.528 211.558 171.927 382.956 383.484 383.484zM977.455 960c-282.77 0-512-229.23-512-512s229.23-512 512-512c282.77 0 512 229.23 512 512s-229.23 512-512 512z" />
<glyph unicode="&#xe93e;" glyph-name="instagram" d="M870.4 921.6h-716.8c-56.32 0-102.4-46.080-102.4-102.4v-716.8c0-56.371 46.080-102.4 102.4-102.4h716.8c56.32 0 102.4 46.029 102.4 102.4v716.8c0 56.32-46.080 102.4-102.4 102.4zM511.181 178.022c156.621 0 283.546 127.027 283.546 283.597 0 17.306-2.202 33.997-5.274 50.381h80.947v-369.459c0-19.558-15.872-35.328-35.482-35.328h-645.837c-19.61 0-35.482 15.77-35.482 35.328v369.459h79.309c-3.123-16.384-5.325-33.075-5.325-50.381 0-156.621 127.027-283.597 283.597-283.597zM333.978 461.619c0 97.894 79.36 177.203 177.254 177.203 97.843 0 177.254-79.309 177.254-177.203s-79.411-177.254-177.254-177.254c-97.946 0-177.254 79.36-177.254 177.254zM834.918 665.6h-82.688c-19.558 0-35.43 15.974-35.43 35.43v82.79c0 19.558 15.872 35.379 35.379 35.379h82.688c19.661 0 35.533-15.821 35.533-35.379v-82.739c0-19.507-15.872-35.482-35.482-35.482z" />
<glyph unicode="&#xe93f;" glyph-name="youtube" horiz-adv-x="878" d="M554.857 240v-120.571q0-38.286-22.286-38.286-13.143 0-25.714 12.571v172q12.571 12.571 25.714 12.571 22.286 0 22.286-38.286zM748 239.428v-26.286h-51.429v26.286q0 38.857 25.714 38.857t25.714-38.857zM196 364h61.143v53.714h-178.286v-53.714h60v-325.143h57.143v325.143zM360.571 38.857h50.857v282.286h-50.857v-216q-17.143-24-32.571-24-10.286 0-12 12-0.571 1.714-0.571 20v208h-50.857v-223.429q0-28 4.571-41.714 6.857-21.143 33.143-21.143 27.429 0 58.286 34.857v-30.857zM605.714 123.428v112.571q0 41.714-5.143 56.571-9.714 32-40.571 32-28.571 0-53.143-30.857v124h-50.857v-378.857h50.857v27.429q25.714-31.429 53.143-31.429 30.857 0 40.571 31.429 5.143 15.429 5.143 57.143zM798.857 129.143v7.429h-52q0-29.143-1.143-34.857-4-20.571-22.857-20.571-26.286 0-26.286 39.429v49.714h102.286v58.857q0 45.143-15.429 66.286-22.286 29.143-60.571 29.143-38.857 0-61.143-29.143-16-21.143-16-66.286v-98.857q0-45.143 16.571-66.286 22.286-29.143 61.714-29.143 41.143 0 61.714 30.286 10.286 15.429 12 30.857 1.143 5.143 1.143 33.143zM451.429 650.857v120q0 39.429-24.571 39.429t-24.571-39.429v-120q0-40 24.571-40t24.571 40zM862.286 221.714q0-133.714-14.857-200-8-33.714-33.143-56.571t-58.286-26.286q-105.143-12-317.143-12t-317.143 12q-33.143 3.429-58.571 26.286t-32.857 56.571q-14.857 64-14.857 200 0 133.714 14.857 200 8 33.714 33.143 56.571t58.857 26.857q104.571 11.429 316.571 11.429t317.143-11.429q33.143-4 58.571-26.857t32.857-56.571q14.857-64 14.857-200zM292 950.857h58.286l-69.143-228v-154.857h-57.143v154.857q-8 42.286-34.857 121.143-21.143 58.857-37.143 106.857h60.571l40.571-150.286zM503.429 760.571v-100q0-46.286-16-67.429-21.143-29.143-60.571-29.143-38.286 0-60 29.143-16 21.714-16 67.429v100q0 45.714 16 66.857 21.714 29.143 60 29.143 39.429 0 60.571-29.143 16-21.143 16-66.857zM694.857 853.143v-285.143h-52v31.429q-30.286-35.429-58.857-35.429-26.286 0-33.714 21.143-4.571 13.714-4.571 42.857v225.143h52v-209.714q0-18.857 0.571-20 1.714-12.571 12-12.571 15.429 0 32.571 24.571v217.714h52z" />
<glyph unicode="&#xe942;" glyph-name="phone" d="M704 320c-64-64-64-128-128-128s-128 64-192 128-128 128-128 192 64 64 128 128-128 256-192 256-192-192-192-192c0-128 131.5-387.5 256-512s384-256 512-256c0 0 192 128 192 192s-192 256-256 192z" />
<glyph unicode="&#xe947;" glyph-name="location" d="M512 960c-176.732 0-320-143.268-320-320 0-320 320-704 320-704s320 384 320 704c0 176.732-143.27 320-320 320zM512 448c-106.040 0-192 85.96-192 192s85.96 192 192 192 192-85.96 192-192-85.96-192-192-192z" />
<glyph unicode="&#xe9cb;" glyph-name="link" d="M440.236 324.234c-13.31 0-26.616 5.076-36.77 15.23-95.134 95.136-95.134 249.934 0 345.070l192 192c46.088 46.086 107.36 71.466 172.534 71.466s126.448-25.38 172.536-71.464c95.132-95.136 95.132-249.934 0-345.070l-87.766-87.766c-20.308-20.308-53.23-20.308-73.54 0-20.306 20.306-20.306 53.232 0 73.54l87.766 87.766c54.584 54.586 54.584 143.404 0 197.99-26.442 26.442-61.6 41.004-98.996 41.004s-72.552-14.562-98.996-41.006l-192-191.998c-54.586-54.586-54.586-143.406 0-197.992 20.308-20.306 20.306-53.232 0-73.54-10.15-10.152-23.462-15.23-36.768-15.23zM256-52c-65.176 0-126.45 25.38-172.534 71.464-95.134 95.136-95.134 249.934 0 345.070l87.764 87.764c20.308 20.306 53.234 20.306 73.54 0 20.308-20.306 20.308-53.232 0-73.54l-87.764-87.764c-54.586-54.586-54.586-143.406 0-197.992 26.44-26.44 61.598-41.002 98.994-41.002s72.552 14.562 98.998 41.006l192 191.998c54.584 54.586 54.584 143.406 0 197.992-20.308 20.308-20.306 53.232 0 73.54 20.306 20.306 53.232 20.306 73.54-0.002 95.132-95.134 95.132-249.932 0.002-345.068l-192.002-192c-46.090-46.088-107.364-71.466-172.538-71.466z" />
<glyph unicode="&#xea1c;" glyph-name="play3" d="M192 832l640-384-640-384z" />
<glyph unicode="&#xea90;" glyph-name="facebook" d="M608 768h160v192h-160c-123.514 0-224-100.486-224-224v-96h-128v-192h128v-512h192v512h160l32 192h-192v96c0 17.346 14.654 32 32 32z" />
<glyph unicode="&#xea96;" glyph-name="twitter" d="M1024 733.6c-37.6-16.8-78.2-28-120.6-33 43.4 26 76.6 67.2 92.4 116.2-40.6-24-85.6-41.6-133.4-51-38.4 40.8-93 66.2-153.4 66.2-116 0-210-94-210-210 0-16.4 1.8-32.4 5.4-47.8-174.6 8.8-329.4 92.4-433 219.6-18-31-28.4-67.2-28.4-105.6 0-72.8 37-137.2 93.4-174.8-34.4 1-66.8 10.6-95.2 26.2 0-0.8 0-1.8 0-2.6 0-101.8 72.4-186.8 168.6-206-17.6-4.8-36.2-7.4-55.4-7.4-13.6 0-26.6 1.4-39.6 3.8 26.8-83.4 104.4-144.2 196.2-146-72-56.4-162.4-90-261-90-17 0-33.6 1-50.2 3 93.2-59.8 203.6-94.4 322.2-94.4 386.4 0 597.8 320.2 597.8 597.8 0 9.2-0.2 18.2-0.6 27.2 41 29.4 76.6 66.4 104.8 108.6z" />
<glyph unicode="&#xeac5;" glyph-name="skype" d="M425.6 922.6c-1.6 1-3.4 1.8-5 2.6-1.8-0.4-3.4-0.6-5.2-1l10.2-1.6zM36.8 539c-0.4-1.8-0.6-3.6-0.8-5.2 1-1.6 1.6-3.2 2.6-4.8l-1.8 10zM986.8 357.4c0.4 1.8 0.6 3.6 1 5.4-1 1.6-1.6 3.2-2.6 4.8l1.6-10.2zM592-23c1.6-1 3.4-1.8 5-2.6 1.8 0.4 3.6 0.6 5.4 0.8l-10.4 1.8zM987.8 362.8c-0.4-1.8-0.6-3.6-1-5.4l-1.8 10.4c1-1.8 1.8-3.4 2.8-5 5.2 28.8 8 58.2 8 87.6 0 65.2-12.8 128.6-38 188.2-24.4 57.6-59.2 109.4-103.6 153.8s-96.2 79.2-153.6 103.6c-59.6 25.2-123 38-188.2 38-30.8 0-61.6-2.8-91.6-8.6 0 0-0.2 0-0.2 0 1.6-0.8 3.4-1.6 5-2.6l-10.2 1.6c1.8 0.4 3.4 0.6 5.2 1-41.2 21.8-87.4 33.6-134.2 33.6-76.4 0-148.4-29.8-202.4-83.8s-83.8-126-83.8-202.4c0-48.6 12.6-96.6 36-138.8 0.4 1.8 0.6 3.6 0.8 5.2l1.8-10.2c-1 1.6-1.8 3.2-2.6 4.8-4.8-27.4-7.2-55.4-7.2-83.4 0-65.2 12.8-128.6 38-188.2 24.4-57.6 59.2-109.2 103.6-153.6s96.2-79.2 153.8-103.6c59.6-25.2 123-38 188.2-38 28.4 0 56.8 2.6 84.6 7.6-1.6 1-3.2 1.8-5 2.6l10.4-1.8c-1.8-0.4-3.6-0.6-5.4-0.8 42.8-24.2 91.4-37.2 140.8-37.2 76.4 0 148.4 29.8 202.4 83.8s83.8 126 83.8 202.4c-0.2 48.6-12.8 96.6-36.4 139.2zM514.2 154.2c-171.8 0-248.6 84.4-248.6 147.8 0 32.4 24 55.2 57 55.2 73.6 0 54.4-105.6 191.6-105.6 70.2 0 109 38.2 109 77.2 0 23.4-11.6 49.4-57.8 60.8l-152.8 38.2c-123 30.8-145.4 97.4-145.4 160 0 129.8 122.2 178.6 237 178.6 105.8 0 230.4-58.4 230.4-136.4 0-33.4-29-52.8-62-52.8-62.8 0-51.2 86.8-177.6 86.8-62.8 0-97.4-28.4-97.4-69s49.6-53.6 92.6-63.4l113.2-25.2c123.8-27.6 155.2-100 155.2-168 0-105.4-81-184.2-244.4-184.2z" />
<glyph unicode="&#xeac9;" glyph-name="linkedin" d="M928 960h-832c-52.8 0-96-43.2-96-96v-832c0-52.8 43.2-96 96-96h832c52.8 0 96 43.2 96 96v832c0 52.8-43.2 96-96 96zM384 128h-128v448h128v-448zM320 640c-35.4 0-64 28.6-64 64s28.6 64 64 64c35.4 0 64-28.6 64-64s-28.6-64-64-64zM832 128h-128v256c0 35.4-28.6 64-64 64s-64-28.6-64-64v-256h-128v448h128v-79.4c26.4 36.2 66.8 79.4 112 79.4 79.6 0 144-71.6 144-160v-288z" />
</font>
</defs>
</svg>
